<svg xmlns="http://www.w3.org/2000/svg" width="148" height="42" fill="none"><g clip-path="url(#a)" fill="#855CF8"><path d="M24.438 8.208h-9.813c-.676 0-1.227.555-1.227 1.237v7.461c0 .682.55 1.237 1.227 1.237h1.84v2.484l3.895-2.484h4.078c.677 0 1.227-.555 1.227-1.237V9.445a1.249 1.249 0 0 0-.36-.876 1.218 1.218 0 0 0-.867-.361Zm-3.68 6.83h-4.293v-1.242h4.293v1.242Zm1.84-2.484h-6.133v-1.242h6.133v1.242Z"/><path d="M25.411 26.16a17.84 17.84 0 0 1-5.284-.79 1.584 1.584 0 0 0-1.51.333l-3.256 3.053c-4.188-1.998-7.622-5.204-9.753-9.13l3.256-3.067c.414-.375.533-.916.37-1.401a14.867 14.867 0 0 1-.844-4.954c0-.763-.666-1.388-1.48-1.388H1.73c-.814 0-1.48.625-1.48 1.388 0 13.03 11.263 23.588 25.161 23.588.814 0 1.48-.624 1.48-1.387v-4.857c0-.763-.666-1.387-1.48-1.387ZM37.591 32.415V8.802H47.83c1.798 0 3.309.242 4.531.726 1.23.485 2.156 1.169 2.779 2.053.63.884.945 1.925.945 3.124 0 .869-.192 1.66-.576 2.375a5.089 5.089 0 0 1-1.592 1.799c-.684.477-1.483.807-2.398.992v.23c1.015.039 1.937.296 2.767.773a5.301 5.301 0 0 1 1.984 1.948c.491.823.737 1.791.737 2.906 0 1.291-.338 2.44-1.014 3.447-.669 1.007-1.622 1.799-2.86 2.375-1.237.577-2.713.865-4.427.865H37.591Zm6.41-5.12H47c1.076 0 1.883-.199 2.42-.599.539-.407.808-1.007.808-1.798 0-.554-.127-1.023-.38-1.407-.254-.384-.615-.677-1.084-.876-.462-.2-1.019-.3-1.672-.3h-3.09v4.98Zm0-8.946h2.63c.56 0 1.056-.089 1.487-.265.43-.177.765-.431 1.003-.761.246-.339.369-.75.369-1.234 0-.73-.261-1.288-.784-1.672-.523-.392-1.184-.588-1.983-.588h-2.721v4.52ZM59.28 32.415V8.802h6.41V27.25h9.547v5.165H59.28ZM84.238 8.802v23.613h-6.41V8.802h6.41Zm23.469 0v23.613h-5.35l-8.532-12.406h-.138v12.406h-6.41V8.802h5.441l8.394 12.36h.184V8.802h6.411Zm18.367 7.794a3.17 3.17 0 0 0-.473-1.072 2.939 2.939 0 0 0-.807-.796 3.308 3.308 0 0 0-1.107-.495 5.115 5.115 0 0 0-1.372-.173c-1.076 0-1.994.257-2.755.772-.754.515-1.33 1.257-1.73 2.225-.392.969-.588 2.137-.588 3.505 0 1.384.188 2.568.565 3.552.377.983.938 1.737 1.683 2.26.746.522 1.672.783 2.779.783.976 0 1.787-.142 2.433-.426.653-.285 1.141-.688 1.464-1.21.323-.524.484-1.138.484-1.846l1.107.116h-5.396v-4.566h10.469v3.274c0 2.153-.457 3.994-1.372 5.523a9.09 9.09 0 0 1-3.758 3.505c-1.591.807-3.417 1.21-5.477 1.21-2.298 0-4.316-.487-6.053-1.463-1.737-.977-3.094-2.368-4.07-4.174-.969-1.806-1.453-3.955-1.453-6.445 0-1.953.296-3.682.888-5.189.599-1.506 1.43-2.778 2.49-3.816a10.532 10.532 0 0 1 3.678-2.364c1.392-.538 2.883-.807 4.474-.807 1.399 0 2.698.2 3.897.6 1.207.392 2.271.953 3.194 1.683a8.747 8.747 0 0 1 2.248 2.571c.569.992.915 2.08 1.038 3.263h-6.48Z"/></g><defs><clipPath id="a"><path fill="#fff" transform="translate(.25 .922)" d="M0 0h147.5v40.156H0z"/></clipPath></defs><script/></svg>
